<svg width="18" height="18" viewBox="0 0 18 18" fill="none" xmlns="http://www.w3.org/2000/svg">
<path d="M8.25 1.50002H6.75C3 1.50002 1.5 3.00002 1.5 6.75002V11.25C1.5 15 3 16.5 6.75 16.5H11.25C15 16.5 16.5 15 16.5 11.25V9.75002" stroke="white" stroke-width="1.2" stroke-linecap="round" stroke-linejoin="round"/>
<path d="M12.03 2.26503L6.12003 8.17503C5.89503 8.40003 5.67003 8.84253 5.62503 9.16503L5.30253 11.4225C5.18253 12.24 5.76003 12.81 6.57753 12.6975L8.83503 12.375C9.15003 12.33 9.59253 12.105 9.82503 11.88L15.735 5.97003C16.755 4.95003 17.235 3.76503 15.735 2.26503C14.235 0.765025 13.05 1.24503 12.03 2.26503Z" stroke="white" stroke-width="1.2" stroke-miterlimit="10" stroke-linecap="round" stroke-linejoin="round"/>
<path d="M11.1825 3.11254C11.685 4.90504 13.0875 6.30754 14.8875 6.81754" stroke="white" stroke-width="1.2" stroke-miterlimit="10" stroke-linecap="round" stroke-linejoin="round"/>
</svg>
