<svg width="20" height="20" viewBox="0 0 20 20" fill="none" xmlns="http://www.w3.org/2000/svg">
<path d="M9.16675 1.66663H7.50008C3.33341 1.66663 1.66675 3.33329 1.66675 7.49996V12.5C1.66675 16.6666 3.33341 18.3333 7.50008 18.3333H12.5001C16.6667 18.3333 18.3334 16.6666 18.3334 12.5V10.8333" stroke="#3063E3" stroke-width="1.2" stroke-linecap="round" stroke-linejoin="round"/>
<path d="M13.3666 2.51676L6.7999 9.08342C6.5499 9.33342 6.2999 9.82509 6.2499 10.1834L5.89157 12.6918C5.75823 13.6001 6.3999 14.2334 7.30823 14.1084L9.81657 13.7501C10.1666 13.7001 10.6582 13.4501 10.9166 13.2001L17.4832 6.63342C18.6166 5.50009 19.1499 4.18342 17.4832 2.51676C15.8166 0.850089 14.4999 1.38342 13.3666 2.51676Z" stroke="#3063E3" stroke-width="1.2" stroke-miterlimit="10" stroke-linecap="round" stroke-linejoin="round"/>
<path d="M12.425 3.45837C12.9834 5.45004 14.5417 7.00837 16.5417 7.57504" stroke="#3063E3" stroke-width="1.2" stroke-miterlimit="10" stroke-linecap="round" stroke-linejoin="round"/>
</svg>
