<svg width="34" height="34" viewBox="0 0 34 34" fill="none" xmlns="http://www.w3.org/2000/svg">
<rect width="34" height="34" rx="17" fill="#3063E3"/>
<path d="M16.25 9.50002H14.75C11 9.50002 9.5 11 9.5 14.75V19.25C9.5 23 11 24.5 14.75 24.5H19.25C23 24.5 24.5 23 24.5 19.25V17.75" stroke="white" stroke-width="1.2" stroke-linecap="round" stroke-linejoin="round"/>
<path d="M20.03 10.265L14.12 16.175C13.895 16.4 13.67 16.8425 13.625 17.165L13.3025 19.4225C13.1825 20.24 13.76 20.81 14.5775 20.6975L16.835 20.375C17.15 20.33 17.5925 20.105 17.825 19.88L23.735 13.97C24.755 12.95 25.235 11.765 23.735 10.265C22.235 8.76503 21.05 9.24503 20.03 10.265Z" stroke="white" stroke-width="1.2" stroke-miterlimit="10" stroke-linecap="round" stroke-linejoin="round"/>
<path d="M19.1825 11.1125C19.685 12.905 21.0875 14.3075 22.8875 14.8175" stroke="white" stroke-width="1.2" stroke-miterlimit="10" stroke-linecap="round" stroke-linejoin="round"/>
</svg>
