<svg width="25" height="24" viewBox="0 0 25 24" fill="none" xmlns="http://www.w3.org/2000/svg">
<g clip-path="url(#clip0_101_369)">
<path d="M8.86068 0.789433C6.4627 1.62131 4.39469 3.20024 2.96041 5.29431C1.52612 7.38838 0.80116 9.8872 0.892005 12.4237C0.982851 14.9603 1.88472 17.4008 3.46513 19.3869C5.04555 21.373 7.22121 22.8 9.67255 23.4582C11.6599 23.971 13.7421 23.9935 15.7401 23.5238C17.55 23.1173 19.2234 22.2476 20.5963 21.0001C22.0252 19.662 23.0624 17.9597 23.5963 16.0763C24.1767 14.0282 24.2799 11.8743 23.8982 9.78006H12.7382V14.4094H19.2013C19.0721 15.1478 18.7953 15.8525 18.3875 16.4814C17.9796 17.1102 17.449 17.6504 16.8276 18.0694C16.0383 18.5915 15.1487 18.9428 14.2157 19.1007C13.2799 19.2747 12.3202 19.2747 11.3844 19.1007C10.436 18.9046 9.53886 18.5132 8.75005 17.9513C7.48283 17.0543 6.53132 15.7799 6.0313 14.3101C5.52283 12.8127 5.52283 11.1893 6.0313 9.69193C6.38722 8.64234 6.97561 7.68669 7.75255 6.89631C8.64166 5.97521 9.7673 5.3168 11.006 4.99333C12.2446 4.66985 13.5485 4.6938 14.7744 5.06256C15.7321 5.35654 16.6079 5.87019 17.3319 6.56256C18.0607 5.83756 18.7882 5.11068 19.5144 4.38193C19.8894 3.99006 20.2982 3.61693 20.6676 3.21568C19.5624 2.1872 18.2651 1.38691 16.85 0.860683C14.2732 -0.0749616 11.4538 -0.100106 8.86068 0.789433Z" fill="white"/>
<path d="M8.86058 0.789367C11.4535 -0.100776 14.2729 -0.0762934 16.85 0.858742C18.2652 1.38855 19.5619 2.19269 20.6656 3.22499C20.2906 3.62624 19.895 4.00124 19.5125 4.39124C18.785 5.11749 18.0581 5.84124 17.3318 6.56249C16.6078 5.87012 15.732 5.35648 14.7743 5.06249C13.5488 4.69244 12.245 4.66711 11.006 4.98926C9.76699 5.31141 8.64067 5.96861 7.75058 6.88874C6.97364 7.67912 6.38525 8.63477 6.02933 9.68437L2.14246 6.67499C3.53372 3.91604 5.94261 1.80566 8.86058 0.789367Z" fill="#E33629"/>
<path d="M1.11128 9.6563C1.32019 8.62091 1.66704 7.61822 2.14253 6.67505L6.0294 9.69192C5.52093 11.1893 5.52093 12.8127 6.0294 14.31C4.7344 15.31 3.43878 16.315 2.14253 17.325C0.952186 14.9556 0.589153 12.256 1.11128 9.6563Z" fill="#F8BD00"/>
<path d="M12.7381 9.77808H23.8981C24.2799 11.8723 24.1766 14.0262 23.5963 16.0743C23.0623 17.9577 22.0252 19.66 20.5963 20.9981C19.3419 20.0193 18.0819 19.0481 16.8275 18.0693C17.4494 17.6498 17.9802 17.1091 18.3881 16.4796C18.796 15.85 19.0726 15.1446 19.2013 14.4056H12.7381C12.7363 12.8643 12.7381 11.3212 12.7381 9.77808Z" fill="#587DBD"/>
<path d="M2.14062 17.3251C3.43687 16.3251 4.7325 15.3201 6.0275 14.3101C6.52851 15.7804 7.48138 17.0549 8.75 17.9513C9.54127 18.5106 10.4404 18.8988 11.39 19.0913C12.3257 19.2653 13.2855 19.2653 14.2213 19.0913C15.1542 18.9334 16.0439 18.5821 16.8331 18.0601C18.0875 19.0388 19.3475 20.0101 20.6019 20.9888C19.2292 22.237 17.5558 23.1073 15.7456 23.5144C13.7476 23.9841 11.6655 23.9616 9.67813 23.4488C8.10632 23.0291 6.63814 22.2893 5.36563 21.2757C4.01874 20.2063 2.91867 18.8588 2.14062 17.3251Z" fill="#319F43"/>
</g>
<defs>
<clipPath id="clip0_101_369">
<rect width="24" height="24" fill="white" transform="translate(0.5)"/>
</clipPath>
</defs>
</svg>
