<svg width="34" height="34" viewBox="0 0 34 34" fill="none" xmlns="http://www.w3.org/2000/svg">
<g clip-path="url(#clip0_4_6)">
<path d="M34 17C34 7.61116 26.3888 0 17 0C7.61116 0 0 7.61116 0 17C0 26.3888 7.61116 34 17 34C26.3888 34 34 26.3888 34 17Z" fill="#21CE99"/>
<path d="M14.9233 24C14.5684 24 14.215 23.8586 13.9442 23.5774L8.40503 17.7995C7.86499 17.2355 7.86499 16.3204 8.40503 15.7564C8.94646 15.1925 9.82314 15.1925 10.3632 15.7564L14.9233 20.5128L23.6368 11.4241C24.1769 10.8586 25.0535 10.8586 25.595 11.4241C26.135 11.988 26.135 12.9017 25.595 13.4656L15.9024 23.5774C15.6317 23.8586 15.2768 24 14.9233 24Z" fill="white"/>
</g>
<defs>
<clipPath id="clip0_4_6">
<rect width="34" height="34" fill="white"/>
</clipPath>
</defs>
</svg>
