<svg width="20" height="20" viewBox="0 0 20 20" fill="none" xmlns="http://www.w3.org/2000/svg">
<path d="M12 3.22817C12 1.99672 11.0038 1 9.77295 1C8.54207 1 7.54534 1.9956 7.54534 3.22817C7.54534 4.45737 8.54038 5.45522 9.77295 5.45522C11.0038 5.45522 12 4.45737 12 3.22817ZM12 10.1154C12 8.88676 11.0044 7.88723 9.77351 7.88723C8.54263 7.88723 7.5459 8.88563 7.5459 10.1154C7.5459 11.3452 8.54095 12.3447 9.77351 12.3447C11.0038 12.3436 12 11.3452 12 10.1154ZM12 16.7735C12 15.5426 11.0038 14.5448 9.77239 14.5448C8.54263 14.5448 7.5459 15.5409 7.5459 16.7735C7.5459 18.0022 8.54094 19 9.77239 19C11.0038 19 12 18.0022 12 16.7735Z" fill="white"/>
</svg>
