<svg width="22" height="22" viewBox="0 0 22 22" fill="none" xmlns="http://www.w3.org/2000/svg">
<path d="M18.1175 18.6939C17.9362 15.675 15.8767 13.1633 13.0921 12.3098C14.7788 11.5215 15.9501 9.8083 15.9501 7.82219C15.9501 5.08849 13.7338 2.87219 11.0001 2.87219C8.26635 2.87219 6.05005 5.08849 6.05005 7.82219C6.05005 9.8083 7.22135 11.5215 8.91005 12.3098C6.12542 13.1633 4.06598 15.675 3.88468 18.6939C3.87042 18.9281 4.05579 19.1277 4.29209 19.1277C4.50598 19.1277 4.68524 18.9607 4.6995 18.7468C4.89302 15.4366 7.64098 12.8129 11.0001 12.8129C14.3591 12.8129 17.1071 15.4366 17.3026 18.7468C17.3149 18.9607 17.4941 19.1277 17.7101 19.1277C17.9463 19.1277 18.1317 18.9281 18.1175 18.6939ZM6.86487 7.82219C6.86487 5.53867 8.71653 3.68701 11.0001 3.68701C13.2836 3.68701 15.1352 5.53867 15.1352 7.82219C15.1352 10.1057 13.2836 11.9574 11.0001 11.9574C8.71653 11.9574 6.86487 10.1057 6.86487 7.82219Z" fill="#757A86"/>
<path d="M14.6349 7.82239C14.6349 5.81503 13.0075 4.18668 11.0001 4.18665C8.99274 4.18665 7.36438 5.81501 7.36438 7.82239C7.36448 9.82967 8.99281 11.4572 11.0001 11.4572C13.0074 11.4571 14.6348 9.82965 14.6349 7.82239ZM16.4503 7.82239C16.4503 9.62522 15.5717 11.2204 14.2247 12.212C16.6938 13.3652 18.4441 15.7998 18.6163 18.6632L18.6173 18.7599C18.5962 19.2365 18.2042 19.628 17.7101 19.6281C17.2346 19.6281 16.832 19.2595 16.8038 18.7765L16.7794 18.4923C16.4643 15.5803 13.9963 13.3127 11.0001 13.3126C7.90706 13.3126 5.3765 15.7295 5.19836 18.7765V18.7804C5.16639 19.2575 4.76837 19.628 4.29211 19.6281C3.76499 19.6281 3.35427 19.1823 3.38586 18.6632C3.55804 15.8004 5.30724 13.3655 7.77551 12.212C6.42777 11.2203 5.54999 9.62493 5.54993 7.82239C5.54993 4.81254 7.99028 2.37219 11.0001 2.37219C14.0099 2.37223 16.4503 4.81257 16.4503 7.82239Z" fill="#757A86"/>
</svg>
