<svg width="31" height="31" viewBox="0 0 31 31" fill="none" xmlns="http://www.w3.org/2000/svg">
<path d="M28.5781 16.8558H24.7903C20.9507 16.9449 20.9555 22.7787 24.7903 22.8669H28.5781C28.7065 22.8665 28.8295 22.8153 28.9202 22.7246C29.011 22.6338 29.0621 22.5108 29.0625 22.3825V17.3401C29.0627 17.2765 29.0503 17.2134 29.026 17.1545C29.0018 17.0957 28.9661 17.0422 28.9211 16.9972C28.8761 16.9522 28.8226 16.9165 28.7637 16.8922C28.7049 16.868 28.6418 16.8556 28.5781 16.8558ZM25.4975 20.3433C25.3691 20.3433 25.2458 20.2922 25.155 20.2014C25.0642 20.1106 25.0131 19.9874 25.0131 19.8589C25.0131 19.7304 25.0642 19.6072 25.155 19.5164C25.2458 19.4255 25.3691 19.3745 25.4975 19.3745C25.626 19.3745 25.7492 19.4255 25.84 19.5164C25.9309 19.6072 25.9819 19.7304 25.9819 19.8589C25.9819 19.9874 25.9309 20.1106 25.84 20.2014C25.7492 20.2922 25.626 20.3433 25.4975 20.3433Z" fill="#3063E3"/>
<path d="M20.9444 19.9897C20.9124 19.4642 20.988 18.9377 21.1667 18.4424C21.3453 17.9472 21.6231 17.4936 21.9832 17.1095C22.3433 16.7254 22.778 16.4189 23.2606 16.2087C23.7433 15.9985 24.2638 15.889 24.7903 15.887H28.118V14.7197C28.1159 13.7564 27.7327 12.833 27.052 12.1514C26.3713 11.4698 25.4485 11.0853 24.4852 11.082H4.94062C4.40471 11.0757 3.89161 10.8642 3.50687 10.4911C3.22514 10.2051 3.03372 9.84265 2.95645 9.44874C2.87917 9.05483 2.91944 8.64689 3.07225 8.2757C3.22507 7.90451 3.48367 7.58645 3.81588 7.36112C4.14809 7.13579 4.53923 7.01314 4.94062 7.00842H9.93937L11.8381 6.03967H4.94062C4.14434 6.04031 3.38086 6.35692 2.8178 6.91998C2.25475 7.48303 1.93814 8.24652 1.9375 9.0428V25.003C1.93878 25.9673 2.32245 26.8918 3.00436 27.5738C3.68628 28.2557 4.61078 28.6393 5.57516 28.6406H24.4852C25.4495 28.6393 26.374 28.2557 27.056 27.5738C27.7379 26.8918 28.1215 25.9673 28.1228 25.003V23.8356H24.7903C23.7706 23.8347 22.7929 23.4292 22.0718 22.7082C21.3508 21.9871 20.9453 21.0094 20.9444 19.9897Z" fill="#3063E3"/>
<path d="M10.4819 10.1133L20.1936 5.16295C20.3079 5.10401 20.441 5.09284 20.5636 5.13188C20.6862 5.17093 20.7883 5.25701 20.8475 5.37123L23.2597 10.1133C24.054 10.0629 24.8515 10.1134 25.6331 10.2634L21.7387 2.62483C21.6809 2.51056 21.58 2.42393 21.4583 2.38397C21.3366 2.34401 21.204 2.35399 21.0897 2.4117L14.1776 5.93311C11.8803 7.10191 8.31234 8.93139 5.97717 10.1133H10.4819Z" fill="#3063E3"/>
<path d="M12.6083 10.1133H22.1747L20.2033 6.2431L12.6083 10.1133Z" fill="#3063E3"/>
</svg>
